# xmcd
#
# Track frame offsets:
#	150
#	13140
#	23835
#	40825
#	56190
#	71270
#	92535
#	108575
#	125935
#	137670
#	157525
#	169145
#	184035
#	207045
#	223990
#	233885
#	251980
#	271685
#	288425
#	303505
#	321135
#	339150
#
# Disc length: 4794 seconds
#
# Revision: 0
# Processed by: cddbd v1.5.1PL0 Copyright (c) Steve Scherf et al.
# Submitted via: audiograbber 1.81.03
#
DISCID=3e12b816
DTITLE=Classic Country - Vol. 2  - CD 1 -
DYEAR=2004
DGENRE=Country
TTITLE0=Shania Twain - Up
TTITLE1=Glenn Campbell - It´s only make believe
TTITLE2=Bonnie Tyler - Lost in France
TTITLE3=Kenny Rogers - The gambler
TTITLE4=Billy Ray Cyrus - She´s not cryin anymore
TTITLE5=Shakin´ Stevens - Teardrops
TTITLE6=Mary Mc Gregor - Torn between two lovers
TTITLE7=Suzy Quatro - If you can´t give me love
TTITLE8=Bobby Bare - 500 miles away fromhome
TTITLE9=Garth Brooks - Why ain´t runnin
TTITLE10=Sonny James - A world of our own
TTITLE11=Smokie - Lodi
TTITLE12=Curtis Stigers - Time was
TTITLE13=Pussycat - Smile
TTITLE14=Elvis Presley - My boy
TTITLE15=Don Johnson - Hearbeat
TTITLE16=Glenn Frey - Common ground
TTITLE17=Dusty Springfield and Daryl Hall - Wherever would I be
TTITLE18=Bruce Springsteen - I´m going down
TTITLE19=John Denver - Leaving on a jet plane
TTITLE20=Juice Newton - Angel of the morning
TTITLE21=Shania Twain - You win my love
EXTD=
EXTT0=
EXTT1=
EXTT2=
EXTT3=
EXTT4=
EXTT5=
EXTT6=
EXTT7=
EXTT8=
EXTT9=
EXTT10=
EXTT11=
EXTT12=
EXTT13=
EXTT14=
EXTT15=
EXTT16=
EXTT17=
EXTT18=
EXTT19=
EXTT20=
EXTT21=
PLAYORDER=
